<svg xmlns="http://www.w3.org/2000/svg" version="1.1" xmlns:xlink="http://www.w3.org/1999/xlink" xmlns:svgjs="http://svgjs.com/svgjs" width="512" height="512" preserveAspectRatio="none" viewBox="0 0 512 512"><g mask="url(&quot;#SvgjsMask2483&quot;)" fill="none"><rect width="252" height="252" clip-path="url(&quot;#SvgjsClipPath2484&quot;)" x="210.97" y="286.91" fill="url(#SvgjsPattern2485)" transform="rotate(226.77, 336.97, 412.91)"></rect><path d="M87.51 116.7a5.6 5.6 0 1 0 10.19 4.65 5.6 5.6 0 1 0-10.19-4.65zM102.06 123.34a5.6 5.6 0 1 0 10.19 4.65 5.6 5.6 0 1 0-10.19-4.65zM116.62 129.99a5.6 5.6 0 1 0 10.19 4.65 5.6 5.6 0 1 0-10.19-4.65zM131.17 136.63a5.6 5.6 0 1 0 10.19 4.65 5.6 5.6 0 1 0-10.19-4.65zM51.75 117.97a5.6 5.6 0 1 0 10.19 4.65 5.6 5.6 0 1 0-10.19-4.65zM66.31 124.61a5.6 5.6 0 1 0 10.19 4.65 5.6 5.6 0 1 0-10.19-4.65zM80.86 131.26a5.6 5.6 0 1 0 10.19 4.65 5.6 5.6 0 1 0-10.19-4.65zM95.42 137.9a5.6 5.6 0 1 0 10.19 4.65 5.6 5.6 0 1 0-10.19-4.65zM16 119.24a5.6 5.6 0 1 0 10.19 4.65 5.6 5.6 0 1 0-10.19-4.65zM30.55 125.88a5.6 5.6 0 1 0 10.19 4.65 5.6 5.6 0 1 0-10.19-4.65zM45.11 132.53a5.6 5.6 0 1 0 10.19 4.65 5.6 5.6 0 1 0-10.19-4.65zM59.66 139.17a5.6 5.6 0 1 0 10.19 4.65 5.6 5.6 0 1 0-10.19-4.65z" fill="rgba(108, 119, 246, 1)"></path><rect width="96" height="96" clip-path="url(&quot;#SvgjsClipPath2486&quot;)" x="280.29" y="235.18" fill="url(#SvgjsPattern2487)" transform="rotate(28.2, 328.29, 283.18)"></rect><rect width="193.48" height="193.48" clip-path="url(&quot;#SvgjsClipPath2488&quot;)" x="128.14" y="-7.17" fill="url(#SvgjsPattern2489)" transform="rotate(341.79, 224.88, 89.57)"></rect><path d="M76.72 446.2a5.6 5.6 0 1 0 7.04-8.72 5.6 5.6 0 1 0-7.04 8.72zM86.77 433.75a5.6 5.6 0 1 0 7.04-8.71 5.6 5.6 0 1 0-7.04 8.71zM96.83 421.3a5.6 5.6 0 1 0 7.04-8.71 5.6 5.6 0 1 0-7.04 8.71zM106.88 408.86a5.6 5.6 0 1 0 7.04-8.72 5.6 5.6 0 1 0-7.04 8.72z" stroke="rgba(255, 91, 0, 1)" stroke-width="1" stroke-dasharray="3, 2"></path></g><defs><mask id="SvgjsMask2483"><rect width="512" height="512" fill="#ffffff"></rect></mask><pattern x="0" y="0" width="6" height="6" patternUnits="userSpaceOnUse" id="SvgjsPattern2485"><path d="M3 1L3 5M1 3L5 3" stroke="rgba(255, 91, 0, 1)" fill="none" stroke-width="1.56"></path></pattern><clipPath id="SvgjsClipPath2484"><circle r="63" cx="336.97" cy="412.91"></circle></clipPath><pattern x="0" y="0" width="96" height="6" patternUnits="userSpaceOnUse" id="SvgjsPattern2487"><rect width="96" height="3" x="0" y="0" fill="rgba(255, 91, 0, 1)"></rect><rect width="96" height="3" x="0" y="3" fill="rgba(0, 0, 0, 0)"></rect></pattern><clipPath id="SvgjsClipPath2486"><circle r="24" cx="328.29" cy="283.18"></circle></clipPath><pattern x="0" y="0" width="13.82" height="13.82" patternUnits="userSpaceOnUse" id="SvgjsPattern2489"><path d="M6.91 1L6.91 12.82M1 6.91L12.82 6.91" stroke="rgba(108, 119, 246, 1)" fill="none" stroke-width="1"></path></pattern><clipPath id="SvgjsClipPath2488"><circle r="48.37" cx="224.88" cy="89.57"></circle></clipPath></defs></svg>